{"title":"We.Bought.a.Zoo.2011.Cam.XviD.Feel-Free","uid":6959489,"size":1200315006,"categoryP":"video","categoryS":"movies","magnet":"?xt=urn:btih:76f5b874c28e1ff43020cd329a9d36e3229e3d8f&amp;dn=We.Bought.a.Zoo.2011.Cam.XviD.Feel-Free&amp;tr=udp%3A%2F%2Ftracker.openbittorrent.com%3A80&amp;tr=udp%3A%2F%2Fopen.demonii.com%3A1337&amp;tr=udp%3A%2F%2Ftracker.coppersurfer.tk%3A6969&amp;tr=udp%3A%2F%2Fexodus.desync.com%3A6969","seeders":1,"leechers":0,"uploader":".BONE.","files":8,"time":1326714324,"description":"Genre:Comedy | Drama | Family\nLanguage:English\n &lt;a href=&quot;\nhttp://www.imdb.com/title/tt1389137/&quot; rel=&quot;nofollow&quot; target=&quot;_NEW&quot;&gt;\nhttp://www.imdb.com/title/tt1389137/&lt;/a&gt;\n\nSource:INFERNO Thanks!\n\nFormat : AVI\nFormat/Info : Audio Video Interleave\nFile size : 1.12 GiB\nDuration : 1h 58mn\nOverall bit rate : 1 349 Kbps\n\n\nVideo\nID : 0\nFormat : MPEG-4 Visual\nFormat profile : Advanced Simple@L5\nFormat settings, BVOP : Yes\nFormat settings, QPel : No\nFormat settings, GMC : No warppoints\nFormat settings, Matrix : Default (H.263)\nCodec ID : XVID\nCodec ID/Hint : XviD\nDuration : 1h 58mn\nBit rate : 1 178 Kbps\nWidth : 624 pixels\nHeight : 352 pixels\nDisplay aspect ratio : 16:9\nFrame rate : 29.970 fps\nColor space : YUV\nChroma subsampling : 4:2:0\nBit depth : 8 bits\nScan type : Progressive\nBits/(Pixel*Frame) : 0.179\nStream size : 998 MiB (87%)\nWriting library : XviD 1.2.1 (UTC 2008-12-04)\n\nAudio\nID : 1\nFormat : AC-3\nFormat/Info : Audio Coding 3\nMode extension : CM (complete main)\nCodec ID : 2000\nDuration : 1h 58mn\nBit rate mode : Constant\nBit rate : 160 Kbps\nChannel(s) : 2 channels\nChannel positions : Front: L R\nSampling rate : 48.0 KHz\nBit depth : 16 bits\nStream size : 136 MiB (12%)\nAlignment : Aligned on interleaves\nInterleave, duration : 33 ms (1.00 video frame)\nInterleave, preload duration : 512 ms\n\n\nPlot:\nSet in Southern California, a father moves his young family to the countryside to renovate and re-open a struggling zoo.\n &lt;a href=&quot;\nhttp://img830.imageshack.us/img830/715/vlcsnap2012011605h17m37.png&quot; rel=&quot;nofollow&quot; target=&quot;_NEW&quot;&gt;\nhttp://img830.imageshack.us/img830/715/vlcsnap2012011605h17m37.png&lt;/a&gt; &lt;a href=&quot;\nhttp://img684.imageshack.us/img684/6189/vlcsnap2012011605h18m13.png&quot; rel=&quot;nofollow&quot; target=&quot;_NEW&quot;&gt;\nhttp://img684.imageshack.us/img684/6189/vlcsnap2012011605h18m13.png&lt;/a&gt; &lt;a href=&quot;\nhttp://img196.imageshack.us/img196/8712/vlcsnap2012011605h18m01.png&quot; rel=&quot;nofollow&quot; target=&quot;_NEW&quot;&gt;\nhttp://img196.imageshack.us/img196/8712/vlcsnap2012011605h18m01.png&lt;/a&gt; &lt;a href=&quot;\nhttp://img708.imageshack.us/img708/2262/vlcsnap2012011605h18m21.png&quot; rel=&quot;nofollow&quot; target=&quot;_NEW&quot;&gt;\nhttp://img708.imageshack.us/img708/2262/vlcsnap2012011605h18m21.png&lt;/a&gt;\n\n","torrent":{"xt":"urn:btih:76f5b874c28e1ff43020cd329a9d36e3229e3d8f","amp;dn":"We.Bought.a.Zoo.2011.Cam.XviD.Feel-Free","amp;tr":["udp%3A%2F%2Ftracker.openbittorrent.com%3A80","udp%3A%2F%2Fopen.demonii.com%3A1337","udp%3A%2F%2Ftracker.coppersurfer.tk%3A6969","udp%3A%2F%2Fexodus.desync.com%3A6969"],"infoHash":"76f5b874c28e1ff43020cd329a9d36e3229e3d8f","infoHashBuffer":{"type":"Buffer","data":[118,245,184,116,194,142,31,244,48,32,205,50,154,157,54,227,34,158,61,143]},"announce":[],"urlList":[]}}